<svg id="logo-cuotta-svg" data-name="logo-cuotta-svg" xmlns="http://www.w3.org/2000/svg" viewBox="0 0 1031.57 257.89">
	<path d="M118.44,101a51.74,51.74,0,0,0-17.25,2.87A40.15,40.15,0,0,0,87,112.3a40.85,40.85,0,0,0-9.62,13.78,47.5,47.5,0,0,0-3.64,19.34q0,22.22,12.89,33.31t31.43,11.11a63.91,63.91,0,0,0,18.9-2.51A119.15,119.15,0,0,0,151.14,182,37.49,37.49,0,0,1,162,192.87,26.55,26.55,0,0,1,165.67,207q0,14.68-14.17,22.75t-39.23,8q-22.89,0-41.42-6.62a93.44,93.44,0,0,1-31.78-18.63,82.13,82.13,0,0,1-20.54-28.83,93.08,93.08,0,0,1-7.26-37.24q0-23.64,7.82-41.37A79.93,79.93,0,0,1,40.34,76,90,90,0,0,1,71.4,58.75,119.89,119.89,0,0,1,108.64,53q26.14,0,40.32,9.32t14.17,24A25.86,25.86,0,0,1,159.86,99a44.69,44.69,0,0,1-7.63,10.21,119.28,119.28,0,0,0-14.89-5.55,64,64,0,0,0-18.9-2.69" fill="#222220"/>
	<path d="M177.81,60.9a85,85,0,0,1,11.44-2.15,118.06,118.06,0,0,1,16.17-1.07,86.28,86.28,0,0,1,14.35,1.07,24.75,24.75,0,0,1,10.72,4.3,20.72,20.72,0,0,1,6.72,8.77q2.35,5.57,2.36,14.51v77q0,14.68,7.27,20.95t21.07,6.27a53.51,53.51,0,0,0,13.62-1.43,48.21,48.21,0,0,0,8.17-2.87V60.9a84.91,84.91,0,0,1,11.45-2.15,117.85,117.85,0,0,1,16.17-1.07,86.15,86.15,0,0,1,14.34,1.07,24.69,24.69,0,0,1,10.72,4.3,20.74,20.74,0,0,1,6.73,8.77c1.56,3.71,2.36,8.54,2.36,14.51V195.2q0,17.93-15.27,26.86-12.7,7.89-30.33,12a168,168,0,0,1-38.33,4.12,143.81,143.81,0,0,1-36.15-4.29,81.34,81.34,0,0,1-28.51-13.25,59.31,59.31,0,0,1-18.53-23.11q-6.56-14.15-6.54-34.2Z" fill="#222220"/>
	<path d="M554,145.42q0,22.22-6.9,39.58a79.93,79.93,0,0,1-19.43,29.18,82.74,82.74,0,0,1-30,17.91q-17.43,6.09-38.87,6.09t-38.88-6.44a85.61,85.61,0,0,1-30-18.45,82.15,82.15,0,0,1-19.44-29.19q-6.9-17.19-6.9-38.68,0-21.13,6.9-38.32A82.15,82.15,0,0,1,390,77.91a85.59,85.59,0,0,1,30-18.44Q437.36,53,458.79,53t38.87,6.62a88.25,88.25,0,0,1,30,18.63,82.22,82.22,0,0,1,19.43,29.19,101.05,101.05,0,0,1,6.9,38m-127.15,0q0,21.86,8.54,33.49t23.8,11.64q15.25,0,23.43-11.82t8.18-33.31q0-21.48-8.36-33.13t-23.61-11.64q-15.26,0-23.62,11.64t-8.36,33.13" fill="#222220"/>
	<path d="M933.1,53A151.44,151.44,0,0,1,968.88,57q16.17,3.95,27.61,12a54.35,54.35,0,0,1,17.63,20.41q6.18,12.36,6.17,29.19v80.23q0,9.32-5.26,15.22a52.51,52.51,0,0,1-12.54,10.21q-23.61,14-66.48,14a154.34,154.34,0,0,1-34.7-3.58,82.79,82.79,0,0,1-26.51-10.74,49.54,49.54,0,0,1-17.09-18.27q-6-11.1-6-25.78,0-24.72,14.89-38t46.14-16.47l47.59-5v-2.51q0-10.38-9.26-14.86t-26.71-4.47a125.26,125.26,0,0,0-26.88,2.86,144.14,144.14,0,0,0-23.62,7.16,24.89,24.89,0,0,1-8-9.84,31,31,0,0,1-3.27-13.79q0-9.32,4.55-14.86c3-3.71,7.68-6.86,14-9.49A110.52,110.52,0,0,1,906,54.81,219.76,219.76,0,0,1,933.1,53M936,193.77a81.13,81.13,0,0,0,13.62-1.26c5-.83,8.66-2,11.09-3.39V160.46l-26.16,2.15c-6.79.48-12.35,1.92-16.72,4.3s-6.54,6-6.54,10.75a14.2,14.2,0,0,0,5.64,11.64q5.63,4.48,19.07,4.47" fill="#222220"/>
	<path d="M833.93,188.32a64.77,64.77,0,0,1-10.48,2.4,75.3,75.3,0,0,1-11.59.92q-11.22,0-17.39-4.06t-6.18-13.64V118.25h34q9.72,0,15.53-5.72t5.8-18.62a41.91,41.91,0,0,0-2.07-13.46,62.67,62.67,0,0,0-4.29-10.14h-49V46.7q0-18.42-9.17-24.15T753.5,16.83a98.17,98.17,0,0,0-16.28,1.3q-7.66,1.29-11.78,2.39V70.31H714.15s16,32.81-4.88,47.94h16.17v60.11q0,33.19,17.77,47.95t50.69,14.75q26.94,0,37.6-8.85a28.34,28.34,0,0,0,10.66-22.87,27.06,27.06,0,0,0-2.43-12A45.78,45.78,0,0,0,833.93,188.32Z" fill="#222220"/>
	<path d="M705.7,188.32a64.88,64.88,0,0,1-10.47,2.4,75.62,75.62,0,0,1-11.6.92q-11.22,0-17.39-4.06t-6.18-13.64V118.25h34q9.72,0,15.53-5.72t5.8-18.62a41.91,41.91,0,0,0-2.07-13.46,62.67,62.67,0,0,0-4.29-10.14h-49V46.7q0-18.42-9.17-24.15t-25.62-5.72A98.09,98.09,0,0,0,609,18.13q-7.66,1.29-11.78,2.39V70.31H560.88a62.57,62.57,0,0,0-4.31,10.14,41.64,41.64,0,0,0-2.06,13.46q0,12.91,5.8,18.62t15.53,5.72h21.37v60.11q0,33.19,17.77,47.95t50.69,14.75q26.94,0,37.6-8.85a28.38,28.38,0,0,0,10.67-22.87,26.91,26.91,0,0,0-2.44-12,45.78,45.78,0,0,0-5.8-9" fill="#222220"/>
</svg>